# xmcd
#
# Track frame offsets: 
#        150
#        19724
#        31774
#        43148
#        61502
#        71039
#        84457
#        96227
#        102797
#        117716
#        128985
#        144419
#        149198
#        158843
#        169097
#        175803
#        188065
#        201072
#        212824
#        221635
#        236173
#
# Disc length: 3246 seconds
#
# Revision: 1
# Processed by: cddbd v1.5.1PL0 Copyright (c) Steve Scherf et al.
# Submitted via: ExactAudioCopy v0.95b3
#
DISCID=370cac15
DTITLE=Larry Gatlin and The Gatlin Brothers - Live at Billy Bobs Texas
DTITLE=Larry Gatlin and The Gatlin Brothers
DYEAR=2004
DGENRE=Country
TTITLE0=Boogie and Beethoven 
TTITLE1=Night Time Magic
TTITLE2=I Don't Wanna Cry
TTITLE3=I've Done Enough Dyin Today
TTITLE4=I Wish Your Were Someone I Loved
TTITLE5=Bitter They Are, Harder They Fall
TTITLE6=Broken Lady
TTITLE7=Alleluia
TTITLE8=Help Me
TTITLE9=Stand Up
TTITLE10=The Heart
TTITLE11=Texas Medley - Faded Love
TTITLE12=Texas Medley - I Love You So Much It Hurts
TTITLE13=Texas Medley - Crazy
TTITLE14=Texas Medley -Walking The Floor Over You
TTITLE15=Texas Medley -Crying
TTITLE16=Houston (Means Im One Day Closer To You)
TTITLE17=All The Gold In California
TTITLE18=Swing Down Chariot
TTITLE19=Midnight Choir
TTITLE20=Boogie and Beethoven (Reprise)
EXTD=
EXTT0=
EXTT1=
EXTT2=
EXTT3=
EXTT4=
EXTT5=
EXTT6=
EXTT7=
EXTT8=
EXTT9=
EXTT10=
EXTT11=
EXTT12=
EXTT13=
EXTT14=
EXTT15=
EXTT16=
EXTT17=
EXTT18=
EXTT19=
EXTT20=
PLAYORDER=
